<?xml version="1.0" standalone="no"?>
<!DOCTYPE svg PUBLIC "-//W3C//DTD SVG 20010904//EN"
 "http://www.w3.org/TR/2001/REC-SVG-20010904/DTD/svg10.dtd">
<svg version="1.0" xmlns="http://www.w3.org/2000/svg"
 width="1024.000000pt" height="1024.000000pt" viewBox="0 0 1024.000000 1024.000000"
 preserveAspectRatio="xMidYMid meet">

<g transform="translate(0.000000,1024.000000) scale(0.100000,-0.100000)"
fill="#000000" stroke="none">
<path d="M2518 6903 c7 -3 16 -2 19 1 4 3 -2 6 -13 5 -11 0 -14 -3 -6 -6z"/>
<path d="M2728 6903 c94 -2 250 -2 345 0 94 1 17 3 -173 3 -190 0 -267 -2
-172 -3z"/>
<path d="M3265 6890 c27 -12 43 -12 25 0 -8 5 -22 9 -30 9 -10 0 -8 -3 5 -9z"/>
<path d="M2425 6870 c-3 -6 1 -7 9 -4 18 7 21 14 7 14 -6 0 -13 -4 -16 -10z"/>
<path d="M3360 6835 c13 -14 26 -25 28 -25 3 0 -5 11 -18 25 -13 14 -26 25
-28 25 -3 0 5 -11 18 -25z"/>
<path d="M2350 6790 c-6 -11 -8 -20 -6 -20 3 0 10 9 16 20 6 11 8 20 6 20 -3
0 -10 -9 -16 -20z"/>
<path d="M3434 6610 c0 -58 1 -81 3 -52 2 28 2 76 0 105 -2 28 -3 5 -3 -53z"/>
<path d="M2321 6604 c0 -11 3 -14 6 -6 3 7 2 16 -1 19 -3 4 -6 -2 -5 -13z"/>
<path d="M2324 6355 c0 -93 2 -133 3 -88 2 45 2 122 0 170 -1 48 -3 12 -3 -82z"/>
<path d="M3245 6450 c-3 -6 1 -7 9 -4 18 7 21 14 7 14 -6 0 -13 -4 -16 -10z"/>
<path d="M3595 6390 c-278 -28 -499 -195 -593 -448 -33 -90 -42 -257 -18 -352
23 -93 79 -201 135 -262 l48 -52 -54 -133 c-52 -130 -61 -163 -45 -163 4 0 88
28 187 61 l180 61 195 2 c174 2 203 4 265 25 312 103 494 327 497 611 3 254
-124 455 -361 574 -130 66 -279 91 -436 76z m78 -17 c-18 -2 -33 -8 -33 -14 0
-5 -5 -9 -11 -9 -5 0 -8 4 -4 9 3 5 -7 12 -22 14 -16 2 1 4 37 4 36 0 50 -2
33 -4z m80 0 c-7 -2 -19 -2 -25 0 -7 3 -2 5 12 5 14 0 19 -2 13 -5z m-218 -13
c-11 -5 -29 -8 -40 -8 -16 0 -15 2 5 8 34 11 60 11 35 0z m302 4 c-3 -3 -12
-4 -19 -1 -8 3 -5 6 6 6 11 1 17 -2 13 -5z m-243 -12 c3 -5 -1 -9 -9 -9 -8 0
-12 4 -9 9 3 4 7 8 9 8 2 0 6 -4 9 -8z m196 -12 c0 -5 -2 -10 -4 -10 -3 0 -8
5 -11 10 -3 6 -1 10 4 10 6 0 11 -4 11 -10z m145 0 c13 -6 15 -9 5 -9 -8 0
-22 4 -30 9 -18 12 -2 12 25 0z m-496 -13 c8 -10 7 -14 -4 -14 -8 0 -12 4 -9
9 6 10 1 10 -20 2 -9 -3 -14 -9 -12 -13 2 -3 -10 -6 -27 -7 l-32 -1 40 18 c48
22 50 22 64 6z m291 -12 c11 -13 10 -14 -4 -9 -9 3 -16 10 -16 15 0 13 6 11
20 -6z m285 -13 c-3 -3 -11 0 -18 7 -9 10 -8 11 6 5 10 -3 15 -9 12 -12z
m-218 -14 c-3 -8 -6 -5 -6 6 -1 11 2 17 5 13 3 -3 4 -12 1 -19z m-210 -3 c0
-8 -4 -12 -9 -9 -5 3 -6 10 -3 15 9 13 12 11 12 -6z m-280 -2 c-4 -3 -2 -12 4
-19 6 -7 8 -18 4 -24 -10 -16 -32 -12 -40 8 -5 14 -4 15 6 5 19 -19 31 -16 20
6 -9 17 -6 31 7 31 3 0 2 -3 -1 -7z m213 -12 c0 -6 -4 -13 -10 -16 -5 -3 -10
1 -10 9 0 9 5 16 10 16 6 0 10 -4 10 -9z m590 -17 c0 -2 -9 0 -20 6 -11 6 -20
13 -20 16 0 2 9 0 20 -6 11 -6 20 -13 20 -16z m-336 -2 c2 -4 0 -14 -6 -22 -8
-12 -9 -12 -5 2 3 9 1 19 -6 22 -9 3 -9 5 0 5 6 1 14 -3 17 -7z m-139 -22 c0
-7 -9 -14 -20 -16 -19 -3 -19 -2 -2 11 11 8 14 15 7 18 -6 3 -5 4 2 3 7 -2 13
-9 13 -16z m516 -7 c13 -16 12 -17 -3 -5 -9 8 -23 10 -29 6 -8 -4 -9 -3 -5 4
10 17 21 15 37 -5z m-761 -9 c0 -8 -5 -12 -10 -9 -6 4 -8 11 -5 16 9 14 15 11
15 -7z m51 -51 c13 -16 12 -17 -3 -4 -10 7 -18 15 -18 17 0 8 8 3 21 -13z m85
4 c4 -4 0 -7 -9 -7 -9 0 -18 4 -21 9 -7 10 20 9 30 -2z m-132 -29 c1 -7 5 -19
9 -25 5 -8 4 -13 -2 -13 -6 0 -11 3 -12 8 0 4 -3 18 -5 31 -2 14 -2 22 2 19 3
-3 6 -12 8 -20z m191 2 c3 -5 1 -10 -4 -10 -6 0 -11 5 -11 10 0 6 2 10 4 10 3
0 8 -4 11 -10z m105 6 c0 -3 -4 -8 -10 -11 -5 -3 -10 -1 -10 4 0 6 5 11 10 11
6 0 10 -2 10 -4z m70 0 c0 -2 -7 -7 -16 -10 -8 -3 -12 -2 -9 4 6 10 25 14 25
6z m54 -5 c4 -5 -3 -7 -14 -4 -23 6 -26 13 -6 13 8 0 17 -4 20 -9z m433 -31
c-1 -11 -7 -22 -14 -25 -10 -3 -11 0 -5 13 5 9 7 23 4 31 -3 8 0 11 6 7 6 -3
10 -15 9 -26z m-522 0 c-3 -5 -12 -10 -18 -10 -7 0 -6 4 3 10 19 12 23 12 15
0z m-131 -26 c4 -10 2 -13 -6 -8 -8 5 -9 2 -5 -9 3 -10 2 -17 -3 -17 -11 0
-13 11 -4 34 8 20 10 20 18 0z m91 -2 c-3 -3 -11 0 -18 7 -9 10 -8 11 6 5 10
-3 15 -9 12 -12z m596 1 c13 -16 12 -17 -3 -4 -10 7 -18 15 -18 17 0 8 8 3 21
-13z m-786 -33 c3 -6 -1 -7 -9 -4 -18 7 -21 14 -7 14 6 0 13 -4 16 -10z m665
-36 c0 -8 -5 -12 -10 -9 -6 4 -8 11 -5 16 9 14 15 11 15 -7z m98 1 c-10 -10
-49 -14 -43 -4 4 5 10 7 15 4 5 -3 12 0 15 6 4 5 10 8 13 5 3 -3 3 -8 0 -11z
m-1068 -7 c0 -4 -4 -8 -9 -8 -6 0 -12 4 -15 8 -3 5 1 9 9 9 8 0 15 -4 15 -9z
m214 -24 c3 -8 2 -12 -4 -9 -6 3 -10 10 -10 16 0 14 7 11 14 -7z m419 -9 c-3
-9 -8 -14 -10 -11 -3 3 -2 9 2 15 9 16 15 13 8 -4z m-787 -24 c-1 -16 -4 -27
-8 -24 -5 2 -8 -1 -8 -8 0 -7 -2 -10 -5 -7 -5 4 14 68 20 68 1 0 2 -13 1 -29z
m84 19 c0 -5 -5 -10 -11 -10 -5 0 -7 5 -4 10 3 6 8 10 11 10 2 0 4 -4 4 -10z
m431 -13 c-10 -9 -11 -8 -5 6 3 10 9 15 12 12 3 -3 0 -11 -7 -18z m363 8 c-4
-8 -11 -15 -16 -15 -6 0 -5 6 2 15 7 8 14 15 16 15 2 0 1 -7 -2 -15z m110 -1
c3 -8 2 -12 -4 -9 -6 3 -10 10 -10 16 0 14 7 11 14 -7z m322 -21 c-3 -4 -6 -1
-6 6 0 7 -4 9 -10 6 -6 -4 -7 1 -3 11 6 15 7 15 15 -1 6 -9 7 -19 4 -22z
m-276 11 c0 -8 -19 -13 -24 -6 -3 5 1 9 9 9 8 0 15 -2 15 -3z m165 -12 c-3 -3
-11 0 -18 7 -9 10 -8 11 6 5 10 -3 15 -9 12 -12z m-745 -42 c0 -5 -10 -10 -22
-9 -22 0 -22 1 -3 9 11 5 21 9 23 9 1 1 2 -3 2 -9z m-486 -39 c-4 -17 -9 -30
-11 -27 -3 2 -2 19 2 36 9 41 17 33 9 -9z m296 19 c0 -5 -5 -10 -11 -10 -5 0
-7 5 -4 10 3 6 8 10 11 10 2 0 4 -4 4 -10z m465 0 c3 -5 1 -10 -4 -10 -6 0
-11 5 -11 10 0 6 2 10 4 10 3 0 8 -4 11 -10z m-638 -42 c-3 -7 -5 -2 -5 12 0
14 2 19 5 13 2 -7 2 -19 0 -25z m392 -4 c26 -44 26 -49 1 -24 -11 11 -20 27
-20 36 0 8 -4 12 -10 9 -5 -3 -10 -1 -10 4 0 22 19 10 39 -25z m641 26 c0 -5
-5 -10 -11 -10 -5 0 -7 5 -4 10 3 6 8 10 11 10 2 0 4 -4 4 -10z m201 -13 c-10
-9 -11 -8 -5 6 3 10 9 15 12 12 3 -3 0 -11 -7 -18z m-751 9 c0 -2 -7 -7 -16
-10 -8 -3 -12 -2 -9 4 6 10 25 14 25 6z m-216 -22 c3 -8 2 -12 -4 -9 -6 3 -10
10 -10 16 0 14 7 11 14 -7z m586 12 c0 -3 -4 -8 -10 -11 -5 -3 -10 -1 -10 4 0
6 5 11 10 11 6 0 10 -2 10 -4z m247 -12 c-3 -3 -12 -4 -19 -1 -8 3 -5 6 6 6
11 1 17 -2 13 -5z m150 -51 c-3 -10 -5 -2 -5 17 0 19 2 27 5 18 2 -10 2 -26 0
-35z m-1374 -33 c9 0 9 -2 0 -8 -6 -4 -13 -28 -16 -52 -2 -25 -4 -4 -4 45 0
50 2 73 4 53 2 -21 10 -38 16 -38z m1191 54 c3 -8 2 -12 -4 -9 -6 3 -10 10
-10 16 0 14 7 11 14 -7z m-887 -16 c-3 -8 -6 -5 -6 6 -1 11 2 17 5 13 3 -3 4
-12 1 -19z m173 4 c0 -5 -7 -9 -15 -9 -8 0 -12 4 -9 9 3 4 9 8 15 8 5 0 9 -4
9 -8z m-360 -26 c0 -2 -7 -7 -16 -10 -8 -3 -12 -2 -9 4 6 10 25 14 25 6z
m1034 -4 c3 -5 -1 -9 -9 -9 -8 0 -12 4 -9 9 3 4 7 8 9 8 2 0 6 -4 9 -8z
m-1104 -12 c0 -5 -7 -7 -15 -4 -8 4 -15 8 -15 10 0 2 7 4 15 4 8 0 15 -4 15
-10z m624 1 c3 -5 -1 -11 -9 -14 -9 -4 -12 -1 -8 9 6 16 10 17 17 5z m-173
-28 c-8 -15 -10 -15 -11 -2 0 17 10 32 18 25 2 -3 -1 -13 -7 -23z m-465 -40
c-11 -11 -17 4 -9 23 7 18 8 18 11 1 2 -10 1 -21 -2 -24z m578 23 c-6 -15 -34
-31 -34 -19 0 5 30 32 37 33 1 0 0 -6 -3 -14z m-49 -6 c3 -5 -1 -10 -10 -10
-9 0 -13 5 -10 10 3 6 8 10 10 10 2 0 7 -4 10 -10z m188 -35 c-6 -17 -23 -20
-23 -5 0 6 5 10 11 10 5 0 7 5 3 12 -4 7 -3 8 4 4 6 -4 9 -13 5 -21z m565 0
c-3 -3 -9 2 -12 12 -6 14 -5 15 5 6 7 -7 10 -15 7 -18z m-1211 -7 c-3 -8 -6
-5 -6 6 -1 11 2 17 5 13 3 -3 4 -12 1 -19z m733 2 c0 -11 -2 -20 -4 -20 -2 0
-6 9 -9 20 -3 11 -1 20 4 20 5 0 9 -9 9 -20z m47 5 c0 -8 -4 -12 -9 -9 -5 3
-6 10 -3 15 9 13 12 11 12 -6z m157 0 c-4 -8 -11 -12 -16 -9 -6 4 -5 10 3 15
19 12 19 11 13 -6z m-509 -14 c3 -5 1 -12 -5 -16 -5 -3 -10 1 -10 9 0 18 6 21
15 7z m-469 -14 c4 -4 0 -7 -9 -7 -10 0 -14 -5 -11 -15 4 -8 1 -15 -5 -15 -6
0 -10 11 -9 24 2 22 19 29 34 13z m1301 -19 c-3 -8 -6 -5 -6 6 -1 11 2 17 5
13 3 -3 4 -12 1 -19z m-1370 -10 c-3 -8 -6 -5 -6 6 -1 11 2 17 5 13 3 -3 4
-12 1 -19z m330 16 c-3 -3 -12 -4 -19 -1 -8 3 -5 6 6 6 11 1 17 -2 13 -5z
m307 -10 c3 -8 2 -12 -4 -9 -6 3 -10 10 -10 16 0 14 7 11 14 -7z m-456 -29
c-3 -3 -9 2 -12 12 -6 14 -5 15 5 6 7 -7 10 -15 7 -18z m262 21 c0 -3 -4 -8
-10 -11 -5 -3 -10 -1 -10 4 0 6 5 11 10 11 6 0 10 -2 10 -4z m515 -14 c-3 -3
-11 0 -18 7 -9 10 -8 11 6 5 10 -3 15 -9 12 -12z m-679 -12 c0 -24 -3 -25 -22
-6 -12 13 -12 15 4 19 9 3 17 5 17 6 1 0 1 -8 1 -19z m186 3 c-6 -3 -9 -10 -6
-15 4 -7 2 -8 -5 -4 -9 6 -9 11 0 22 6 8 15 12 18 8 3 -4 0 -9 -7 -11z m-82
-17 c0 -3 -4 -8 -10 -11 -5 -3 -10 -1 -10 4 0 6 5 11 10 11 6 0 10 -2 10 -4z
m240 -17 c0 -6 -4 -7 -10 -4 -5 3 -10 11 -10 16 0 6 5 7 10 4 6 -3 10 -11 10
-16z m728 -4 c-3 -3 -9 2 -12 12 -6 14 -5 15 5 6 7 -7 10 -15 7 -18z m-1318
-25 c0 -13 -1 -13 -10 0 -5 8 -10 22 -10 30 0 13 1 13 10 0 5 -8 10 -22 10
-30z m427 8 c-3 -8 -6 -5 -6 6 -1 11 2 17 5 13 3 -3 4 -12 1 -19z m803 8 c0
-3 -4 -8 -10 -11 -5 -3 -10 -1 -10 4 0 6 5 11 10 11 6 0 10 -2 10 -4z m-660
-10 c0 -2 -7 -7 -16 -10 -8 -3 -12 -2 -9 4 6 10 25 14 25 6z m510 -6 c0 -5 -5
-10 -11 -10 -5 0 -7 5 -4 10 3 6 8 10 11 10 2 0 4 -4 4 -10z m195 -65 c-15
-25 -31 -48 -37 -51 -6 -4 -3 5 6 19 13 20 14 26 4 30 -8 3 -6 6 5 6 11 1 15
6 11 13 -4 6 -3 8 3 5 6 -4 14 5 18 21 4 15 9 22 12 15 2 -7 -8 -33 -22 -58z
m-770 25 c3 -6 -1 -7 -9 -4 -18 7 -21 14 -7 14 6 0 13 -4 16 -10z m228 -10
c-3 -11 -7 -20 -9 -20 -2 0 -4 9 -4 20 0 11 4 20 9 20 5 0 7 -9 4 -20z m-689
-32 c8 -5 7 -8 -1 -8 -7 0 -17 9 -23 19 -14 27 -12 41 2 16 6 -11 16 -23 22
-27z m276 32 c0 -5 -5 -10 -11 -10 -5 0 -7 5 -4 10 3 6 8 10 11 10 2 0 4 -4 4
-10z m328 -30 c-7 -10 -14 -17 -17 -15 -4 4 18 35 25 35 2 0 -1 -9 -8 -20z
m-134 -65 c-4 -8 -11 -12 -16 -9 -6 4 -5 10 3 15 19 12 19 11 13 -6z m310 -3
c3 -5 -1 -9 -9 -9 -8 0 -12 4 -9 9 3 4 7 8 9 8 2 0 6 -4 9 -8z m226 -2 c0 -5
-2 -10 -4 -10 -3 0 -8 5 -11 10 -3 6 -1 10 4 10 6 0 11 -4 11 -10z m165 0 c-3
-5 -12 -10 -18 -10 -7 0 -6 4 3 10 19 12 23 12 15 0z m-654 -17 c13 -16 12
-17 -3 -4 -10 7 -18 15 -18 17 0 8 8 3 21 -13z m6 -85 c-3 -8 -6 -5 -6 6 -1
11 2 17 5 13 3 -3 4 -12 1 -19z m-426 -35 c-12 -20 -14 -14 -5 12 4 9 9 14 11
11 3 -2 0 -13 -6 -23z m665 -9 c1 -9 0 -13 -4 -10 -3 4 -7 14 -8 22 -1 9 0 13
4 10 3 -4 7 -14 8 -22z m237 12 c3 -8 -5 -18 -21 -25 -24 -10 -25 -10 -9 2 9
8 17 19 17 26 0 15 7 14 13 -3z m-492 -19 c-6 -8 -9 -17 -6 -21 3 -3 -1 -1 -7
4 -10 9 -10 13 2 20 21 13 24 12 11 -3z m384 -47 c-3 -5 -14 -10 -23 -9 -14 0
-13 2 3 9 27 11 27 11 20 0z m-105 -24 c0 -11 -19 -15 -25 -6 -3 5 1 10 9 10
9 0 16 -2 16 -4z m-660 -16 c0 -5 -5 -10 -11 -10 -5 0 -7 5 -4 10 3 6 8 10 11
10 2 0 4 -4 4 -10z m610 -6 c0 -2 -12 -4 -27 -4 -21 0 -24 3 -14 9 13 8 41 5
41 -5z m-173 -10 c-3 -3 -12 -4 -19 -1 -8 3 -5 6 6 6 11 1 17 -2 13 -5z m40 0
c-3 -3 -12 -4 -19 -1 -8 3 -5 6 6 6 11 1 17 -2 13 -5z m56 -1 c-7 -2 -21 -2
-30 0 -10 3 -4 5 12 5 17 0 24 -2 18 -5z m-549 -69 c5 -14 4 -15 -9 -4 -17 14
-19 20 -6 20 5 0 12 -7 15 -16z"/>
<path d="M3035 6298 l-50 -53 53 50 c48 46 57 55 49 55 -1 0 -25 -24 -52 -52z"/>
<path d="M2905 6129 c-4 -6 -5 -12 -2 -15 2 -3 7 2 10 11 7 17 1 20 -8 4z"/>
<path d="M2822 5900 c0 -14 2 -19 5 -12 2 6 2 18 0 25 -3 6 -5 1 -5 -13z"/>
<path d="M1379 5823 l-34 -38 38 34 c20 19 37 36 37 38 0 8 -8 0 -41 -34z"/>
<path d="M2812 5835 c0 -16 2 -22 5 -12 2 9 2 23 0 30 -3 6 -5 -1 -5 -18z"/>
<path d="M2803 5725 c0 -22 2 -30 4 -17 2 12 2 30 0 40 -3 9 -5 -1 -4 -23z"/>
<path d="M1311 5694 c0 -11 3 -14 6 -6 3 7 2 16 -1 19 -3 4 -6 -2 -5 -13z"/>
<path d="M2812 5630 c0 -14 2 -19 5 -12 2 6 2 18 0 25 -3 6 -5 1 -5 -13z"/>
<path d="M2831 5534 c0 -11 3 -14 6 -6 3 7 2 16 -1 19 -3 4 -6 -2 -5 -13z"/>
<path d="M2930 5316 c0 -2 8 -10 18 -17 15 -13 16 -12 3 4 -13 16 -21 21 -21
13z"/>
<path d="M2971 5263 c7 -12 15 -20 18 -17 3 2 -3 12 -13 22 -17 16 -18 16 -5
-5z"/>
<path d="M4365 5259 c-4 -6 -5 -12 -2 -15 2 -3 7 2 10 11 7 17 1 20 -8 4z"/>
<path d="M4309 5193 l-24 -28 28 24 c25 23 32 31 24 31 -2 0 -14 -12 -28 -27z"/>
<path d="M1301 5194 c0 -11 3 -14 6 -6 3 7 2 16 -1 19 -3 4 -6 -2 -5 -13z"/>
<path d="M1303 5135 c0 -22 2 -30 4 -17 2 12 2 30 0 40 -3 9 -5 -1 -4 -23z"/>
<path d="M4259 5153 c-13 -16 -12 -17 4 -4 9 7 17 15 17 17 0 8 -8 3 -21 -13z"/>
<path d="M4219 5123 c-13 -16 -12 -17 4 -4 9 7 17 15 17 17 0 8 -8 3 -21 -13z"/>
<path d="M4118 5064 c-38 -20 -36 -28 2 -9 17 9 30 18 30 20 0 7 -1 6 -32 -11z"/>
<path d="M4361 5034 c0 -11 3 -14 6 -6 3 7 2 16 -1 19 -3 4 -6 -2 -5 -13z"/>
<path d="M2892 4985 c0 -16 2 -22 5 -12 2 9 2 23 0 30 -3 6 -5 -1 -5 -18z"/>
<path d="M1311 4984 c0 -11 3 -14 6 -6 3 7 2 16 -1 19 -3 4 -6 -2 -5 -13z"/>
<path d="M4361 4984 c0 -11 3 -14 6 -6 3 7 2 16 -1 19 -3 4 -6 -2 -5 -13z"/>
<path d="M3888 4973 c7 -3 16 -2 19 1 4 3 -2 6 -13 5 -11 0 -14 -3 -6 -6z"/>
<path d="M3528 4963 c7 -3 16 -2 19 1 4 3 -2 6 -13 5 -11 0 -14 -3 -6 -6z"/>
<path d="M3838 4963 c7 -3 16 -2 19 1 4 3 -2 6 -13 5 -11 0 -14 -3 -6 -6z"/>
<path d="M3608 4953 c12 -2 30 -2 40 0 9 3 -1 5 -23 4 -22 0 -30 -2 -17 -4z"/>
<path d="M3723 4953 c15 -2 37 -2 50 0 12 2 0 4 -28 4 -27 0 -38 -2 -22 -4z"/>
<path d="M1360 4880 c12 -16 24 -30 26 -30 3 0 -4 14 -16 30 -12 17 -24 30
-26 30 -3 0 4 -13 16 -30z"/>
<path d="M4310 4880 c-12 -16 -19 -30 -16 -30 2 0 14 14 26 30 12 17 19 30 16
30 -2 0 -14 -13 -26 -30z"/>
<path d="M1419 4831 c13 -12 28 -21 34 -21 12 0 11 0 -28 24 l-30 17 24 -20z"/>
<path d="M4244 4824 c-18 -14 -18 -15 4 -4 12 6 22 13 22 15 0 8 -5 6 -26 -11z"/>
<path d="M3068 4823 c6 -2 18 -2 25 0 6 3 1 5 -13 5 -14 0 -19 -2 -12 -5z"/>
<path d="M1548 4793 c23 -2 61 -2 85 0 23 2 4 4 -43 4 -47 0 -66 -2 -42 -4z"/>
<path d="M1713 4793 c20 -2 54 -2 75 0 20 2 3 4 -38 4 -41 0 -58 -2 -37 -4z"/>
<path d="M1838 4793 c6 -2 18 -2 25 0 6 3 1 5 -13 5 -14 0 -19 -2 -12 -5z"/>
<path d="M1893 4793 c9 -2 23 -2 30 0 6 3 -1 5 -18 5 -16 0 -22 -2 -12 -5z"/>
<path d="M1958 4793 c12 -2 32 -2 45 0 12 2 2 4 -23 4 -25 0 -35 -2 -22 -4z"/>
<path d="M2043 4793 c9 -2 23 -2 30 0 6 3 -1 5 -18 5 -16 0 -22 -2 -12 -5z"/>
<path d="M2103 4793 c9 -2 23 -2 30 0 6 3 -1 5 -18 5 -16 0 -22 -2 -12 -5z"/>
<path d="M2158 4793 c7 -3 16 -2 19 1 4 3 -2 6 -13 5 -11 0 -14 -3 -6 -6z"/>
<path d="M2198 4793 c7 -3 16 -2 19 1 4 3 -2 6 -13 5 -11 0 -14 -3 -6 -6z"/>
<path d="M2248 4793 c12 -2 30 -2 40 0 9 3 -1 5 -23 4 -22 0 -30 -2 -17 -4z"/>
<path d="M3568 4793 c7 -3 16 -2 19 1 4 3 -2 6 -13 5 -11 0 -14 -3 -6 -6z"/>
<path d="M4088 4793 c7 -3 16 -2 19 1 4 3 -2 6 -13 5 -11 0 -14 -3 -6 -6z"/>
<path d="M3425 4375 c0 -225 1 -319 2 -208 2 111 2 295 0 410 -1 114 -2 24 -2
-202z"/>
<path d="M2321 4464 c0 -11 3 -14 6 -6 3 7 2 16 -1 19 -3 4 -6 -2 -5 -13z"/>
<path d="M4095 4470 c-98 -14 -183 -79 -204 -157 -29 -104 1 -205 74 -255 22
-15 88 -43 147 -62 130 -43 160 -57 187 -92 26 -33 28 -100 3 -130 -34 -42
-71 -58 -136 -57 -72 1 -122 21 -175 68 l-38 34 -38 -39 -39 -40 35 -36 c63
-65 120 -87 239 -92 103 -3 106 -3 170 30 52 26 71 43 95 82 25 42 29 58 29
120 0 135 -62 196 -264 260 -46 15 -96 34 -111 42 -97 50 -89 170 15 209 77
29 168 7 225 -56 l26 -28 48 30 47 31 -21 29 c-60 85 -182 127 -314 109z"/>
<path d="M5177 4049 l2 -431 55 -2 56 -1 -2 430 -3 430 -55 3 -55 3 2 -432z"/>
<path d="M6663 4044 l2 -427 60 0 60 0 5 296 5 296 128 -238 c70 -130 133
-245 140 -255 11 -16 30 14 152 243 77 143 142 261 145 261 3 0 4 -135 2 -299
l-3 -299 61 -4 60 -3 -2 425 -3 425 -62 3 -61 3 -133 -271 c-73 -148 -136
-270 -140 -270 -4 0 -71 122 -149 270 l-142 270 -64 0 -64 0 3 -426z"/>
<path d="M2323 4380 c0 -36 2 -50 4 -32 2 17 2 47 0 65 -2 17 -4 3 -4 -33z"/>
<path d="M8940 4386 l-55 -22 -3 -87 -3 -87 -39 0 -40 0 0 -50 0 -50 39 0 39
0 4 -177 c4 -200 14 -237 78 -280 40 -28 139 -31 199 -7 l39 15 -15 45 c-13
38 -17 42 -33 34 -34 -18 -105 -12 -126 11 -17 19 -19 41 -22 190 l-4 169 92
0 93 0 -7 31 c-3 17 -6 40 -6 50 0 16 -10 19 -82 21 l-83 3 -5 107 -5 106 -55
-22z"/>
<path d="M2322 4280 c0 -14 2 -19 5 -12 2 6 2 18 0 25 -3 6 -5 1 -5 -13z"/>
<path d="M2322 4200 c0 -19 2 -27 5 -17 2 9 2 25 0 35 -3 9 -5 1 -5 -18z"/>
<path d="M4712 4199 c-54 -9 -106 -31 -117 -49 -4 -6 3 -26 15 -45 l21 -35 32
17 c18 9 61 18 97 20 56 4 70 2 100 -19 24 -16 39 -37 49 -66 7 -24 11 -45 9
-48 -3 -2 -31 1 -64 7 -156 29 -300 -32 -320 -137 -17 -90 18 -174 87 -213 56
-32 168 -29 238 5 29 15 58 35 64 45 18 29 22 23 19 -26 l-4 -45 46 0 46 0 0
203 c0 214 -7 262 -46 313 -46 62 -159 92 -272 73z m197 -308 c19 -12 9 -86
-17 -120 -29 -40 -79 -65 -132 -65 -76 -1 -120 35 -120 98 0 28 34 74 64 86
28 12 187 12 205 1z"/>
<path d="M6231 4200 c-157 -33 -204 -201 -81 -292 14 -10 72 -30 130 -44 58
-14 113 -33 123 -41 17 -16 23 -59 9 -79 -37 -56 -174 -40 -250 29 l-23 21
-36 -36 c-35 -36 -36 -37 -20 -62 9 -13 45 -39 81 -56 55 -27 75 -32 142 -32
147 -1 234 65 234 177 0 95 -61 142 -233 181 -84 20 -123 49 -113 87 16 67
163 76 215 14 19 -23 30 -21 70 12 29 24 32 30 22 49 -28 52 -175 91 -270 72z"/>
<path d="M7813 4199 c-59 -11 -93 -31 -141 -82 -53 -59 -76 -133 -70 -231 6
-86 32 -148 84 -199 64 -64 87 -72 199 -72 107 0 142 11 197 62 l27 26 -31 38
c-27 34 -33 37 -47 25 -58 -50 -165 -62 -231 -25 -40 22 -80 82 -80 118 0 21
3 21 201 21 l202 0 -5 73 c-12 175 -139 278 -305 246z m133 -116 c28 -18 54
-62 54 -93 0 -19 -6 -20 -140 -20 -90 0 -140 4 -140 10 0 6 9 29 21 51 36 72
136 98 205 52z"/>
<path d="M8425 4201 c-90 -16 -158 -70 -199 -160 -30 -68 -29 -198 3 -269 28
-63 103 -133 159 -150 55 -17 161 -15 213 3 49 18 109 60 109 78 0 7 -14 27
-31 46 l-31 33 -21 -20 c-32 -30 -71 -42 -136 -42 -85 0 -152 51 -167 127 l-6
33 203 2 204 3 -3 65 c-9 173 -134 278 -297 251z m120 -115 c24 -16 46 -50 59
-93 l7 -23 -146 0 c-130 0 -146 2 -141 16 3 9 6 19 6 24 0 17 55 73 85 86 36
17 96 12 130 -10z"/>
<path d="M5442 3968 c3 -216 4 -224 28 -267 37 -65 91 -91 192 -91 85 0 122
13 171 58 l27 26 0 -42 0 -42 45 0 45 0 0 259 c0 142 -3 273 -6 290 -6 30 -8
31 -59 31 l-53 0 -4 -197 c-3 -177 -5 -201 -23 -227 -48 -72 -187 -74 -227 -3
-9 15 -15 86 -18 222 l-5 200 -58 3 -58 3 3 -223z"/>
<path d="M2323 4120 c0 -25 2 -35 4 -22 2 12 2 32 0 45 -2 12 -4 2 -4 -23z"/>
<path d="M2321 4054 c0 -11 3 -14 6 -6 3 7 2 16 -1 19 -3 4 -6 -2 -5 -13z"/>
<path d="M3361 3847 c-29 -35 -30 -38 -7 -17 24 22 52 60 44 60 -2 0 -18 -19
-37 -43z"/>
<path d="M2385 3840 c10 -11 20 -20 23 -20 3 0 -3 9 -13 20 -10 11 -20 20 -23
20 -3 0 3 -9 13 -20z"/>
<path d="M2628 3763 c45 -2 119 -2 165 0 45 1 8 3 -83 3 -91 0 -128 -2 -82 -3z"/>
<path d="M2978 3763 c12 -2 32 -2 45 0 12 2 2 4 -23 4 -25 0 -35 -2 -22 -4z"/>
<path d="M3143 3763 c9 -2 23 -2 30 0 6 3 -1 5 -18 5 -16 0 -22 -2 -12 -5z"/>
</g>
</svg>
